<?xml version="1.0" encoding="utf-8"?>
<!-- Generator: Adobe Illustrator 19.0.0, SVG Export Plug-In . SVG Version: 6.00 Build 0)  -->
<svg version="1.1" id="Layer_1" xmlns="http://www.w3.org/2000/svg" xmlns:xlink="http://www.w3.org/1999/xlink" x="0px" y="0px"
	 viewBox="0 0 100 100" style="enable-background:new 0 0 100 100;" xml:space="preserve">
<g id="XMLID_1_">
	<path id="XMLID_10_" d="M2.1,76.8c10.3-14,20.5-27.9,30.9-42c7.6,7.7,15.1,15.4,22.8,23.3c7.1-7.5,13.8-14.5,20.5-21.6
		C72,32.3,67.7,28.1,63,23.5c11.8,0,23,0,34.3,0c0,11.2,0,22.4,0,33.6c-4.2-4.2-8.4-8.4-12.8-12.8c-9.7,10.4-19,20.4-28.5,30.6
		c-7.7-8.1-15.3-16-23.1-24.1C22.7,59.6,12.5,68.4,2.3,77.1C2.2,77,2.2,76.9,2.1,76.8z"/>
</g>
</svg>
